<svg width="41" height="40" viewBox="0 0 41 40" fill="none" xmlns="http://www.w3.org/2000/svg">
<path d="M35.7492 26.1667V9.97918C35.7492 6.99395 33.3386 4.58334 30.3533 4.58334H10.3117C7.32644 4.58334 4.91583 6.99395 4.91583 9.97918V30.0208C4.91583 33.0061 7.32644 35.4167 10.3117 35.4167H26.4992L35.7492 26.1667ZM10.3117 32.3333C9.03629 32.3333 7.99917 31.2962 7.99917 30.0208V9.97918C7.99917 8.7038 9.03629 7.66668 10.3117 7.66668H30.3533C31.6287 7.66668 32.6658 8.7038 32.6658 9.97918V24.625H30.3533C27.3681 24.625 24.9575 27.0356 24.9575 30.0208V32.3333H10.3117ZM16.8848 16.5803C16.4783 15.1508 14.9927 14.3099 13.5632 14.7163C12.1336 15.1227 11.2927 16.6083 11.6992 18.0519C11.8113 18.4443 12.0075 18.7947 12.2598 19.089L16.9408 17.7716C17.0109 17.3792 16.9969 16.9727 16.8848 16.5803ZM26.5272 13.8614C26.1348 12.4318 24.6352 11.5909 23.2056 11.9974C21.7761 12.4038 20.9352 13.8894 21.3416 15.333C21.4537 15.7254 21.6499 16.0758 21.9022 16.3701L26.5833 15.0527C26.6533 14.6602 26.6393 14.2538 26.5272 13.8614ZM27.9007 18.6826L13.0446 22.8731C15.0488 25.522 18.5245 26.8114 21.9022 25.8583C25.2798 24.9053 27.5643 21.9761 27.9007 18.6826Z" fill="black"/>
</svg>